<svg aria-hidden="true" style="position: absolute; width: 0; height: 0; overflow: hidden;" version="1.1" xmlns="http://www.w3.org/2000/svg" xmlns:xlink="http://www.w3.org/1999/xlink">
<defs>
<symbol id="send" viewBox="0 0 89 32">
<path fill="#4d5ae5" style="fill: var(--color1, #4d5ae5)" d="M4 0h80.5c1.105 0 2 0.895 2 2v24c0 1.105-0.895 2-2 2h-80.5c-1.105 0-2-0.895-2-2v-24c0-1.105 0.895-2 2-2z"></path>
<path fill="#fff" style="fill: var(--color2, #fff)" d="M38.293 15.035c0-0.117-0.018-0.221-0.055-0.313-0.034-0.091-0.095-0.174-0.184-0.25s-0.214-0.148-0.375-0.219c-0.159-0.073-0.362-0.147-0.609-0.223-0.271-0.083-0.521-0.176-0.75-0.277-0.227-0.104-0.425-0.224-0.594-0.359-0.169-0.138-0.301-0.296-0.395-0.473-0.094-0.18-0.141-0.387-0.141-0.621 0-0.232 0.048-0.443 0.145-0.633 0.099-0.19 0.238-0.354 0.418-0.492 0.182-0.141 0.397-0.249 0.645-0.324 0.247-0.078 0.521-0.117 0.82-0.117 0.422 0 0.785 0.078 1.090 0.234 0.307 0.156 0.543 0.366 0.707 0.629 0.167 0.263 0.25 0.553 0.25 0.871h-0.973c0-0.188-0.040-0.353-0.121-0.496-0.078-0.146-0.198-0.26-0.359-0.344-0.159-0.083-0.361-0.125-0.605-0.125-0.232 0-0.425 0.035-0.578 0.105s-0.268 0.165-0.344 0.285c-0.076 0.12-0.113 0.255-0.113 0.406 0 0.107 0.025 0.204 0.074 0.293 0.050 0.086 0.125 0.167 0.227 0.242 0.102 0.073 0.229 0.142 0.383 0.207s0.335 0.128 0.543 0.188c0.315 0.094 0.59 0.198 0.824 0.313 0.234 0.112 0.43 0.24 0.586 0.383s0.273 0.306 0.352 0.488c0.078 0.18 0.117 0.384 0.117 0.613 0 0.24-0.048 0.456-0.145 0.648-0.096 0.19-0.234 0.353-0.414 0.488-0.177 0.133-0.391 0.236-0.641 0.309-0.247 0.070-0.523 0.105-0.828 0.105-0.273 0-0.543-0.036-0.809-0.109-0.263-0.073-0.503-0.184-0.719-0.332-0.216-0.151-0.388-0.338-0.516-0.563-0.128-0.227-0.191-0.491-0.191-0.793h0.98c0 0.185 0.031 0.342 0.094 0.473 0.065 0.13 0.155 0.237 0.27 0.32 0.115 0.081 0.247 0.141 0.398 0.18 0.154 0.039 0.318 0.059 0.492 0.059 0.229 0 0.421-0.033 0.574-0.098 0.156-0.065 0.273-0.156 0.352-0.273s0.117-0.253 0.117-0.406zM42.235 16.578c-0.313 0-0.595-0.051-0.848-0.152-0.25-0.104-0.464-0.249-0.641-0.434-0.175-0.185-0.309-0.402-0.402-0.652s-0.141-0.52-0.141-0.809v-0.156c0-0.331 0.048-0.63 0.145-0.898s0.23-0.497 0.402-0.688c0.172-0.193 0.375-0.34 0.609-0.441s0.488-0.152 0.762-0.152c0.302 0 0.566 0.051 0.793 0.152s0.414 0.245 0.563 0.43c0.151 0.182 0.263 0.4 0.336 0.652 0.076 0.253 0.113 0.531 0.113 0.836v0.402h-3.266v-0.676h2.336v-0.074c-0.005-0.169-0.039-0.328-0.102-0.477-0.060-0.148-0.152-0.268-0.277-0.359s-0.292-0.137-0.5-0.137c-0.156 0-0.296 0.034-0.418 0.102-0.12 0.065-0.22 0.16-0.301 0.285s-0.143 0.276-0.188 0.453c-0.042 0.175-0.063 0.371-0.063 0.59v0.156c0 0.185 0.025 0.357 0.074 0.516 0.052 0.156 0.128 0.293 0.227 0.41s0.219 0.21 0.359 0.277c0.141 0.065 0.301 0.098 0.48 0.098 0.227 0 0.428-0.046 0.605-0.137s0.331-0.22 0.461-0.387l0.496 0.48c-0.091 0.133-0.21 0.26-0.355 0.383-0.146 0.12-0.324 0.217-0.535 0.293-0.208 0.076-0.451 0.113-0.727 0.113zM45.914 13.176v3.324h-0.941v-4.227h0.887l0.055 0.902zM45.746 14.23l-0.305-0.004c0.003-0.299 0.044-0.574 0.125-0.824 0.083-0.25 0.198-0.465 0.344-0.645 0.148-0.18 0.325-0.318 0.531-0.414 0.206-0.099 0.435-0.148 0.688-0.148 0.203 0 0.387 0.029 0.551 0.086 0.167 0.055 0.309 0.145 0.426 0.27 0.12 0.125 0.211 0.288 0.273 0.488 0.063 0.198 0.094 0.441 0.094 0.73v2.73h-0.945v-2.734c0-0.203-0.030-0.363-0.090-0.48-0.057-0.12-0.142-0.204-0.254-0.254-0.109-0.052-0.246-0.078-0.41-0.078-0.161 0-0.306 0.034-0.434 0.102s-0.236 0.16-0.324 0.277c-0.086 0.117-0.152 0.253-0.199 0.406s-0.070 0.318-0.070 0.492zM52.331 15.625v-5.125h0.946v6h-0.855l-0.090-0.875zM49.582 14.434v-0.082c0-0.32 0.038-0.612 0.113-0.875 0.075-0.266 0.185-0.493 0.328-0.684 0.143-0.193 0.318-0.34 0.523-0.441 0.206-0.104 0.438-0.156 0.695-0.156 0.255 0 0.48 0.050 0.672 0.148s0.357 0.241 0.492 0.426c0.135 0.182 0.243 0.401 0.324 0.656 0.081 0.253 0.138 0.534 0.172 0.844v0.262c-0.034 0.302-0.092 0.578-0.172 0.828s-0.189 0.466-0.324 0.648c-0.136 0.182-0.301 0.323-0.496 0.422-0.193 0.099-0.418 0.148-0.675 0.148-0.255 0-0.486-0.053-0.691-0.16-0.203-0.107-0.377-0.256-0.52-0.449s-0.253-0.419-0.328-0.68c-0.076-0.263-0.113-0.548-0.113-0.855zM50.523 14.352v0.082c0 0.193 0.017 0.372 0.050 0.539 0.036 0.167 0.093 0.314 0.168 0.441 0.075 0.125 0.173 0.224 0.293 0.297 0.123 0.070 0.269 0.105 0.438 0.105 0.214 0 0.389-0.047 0.528-0.141s0.246-0.22 0.324-0.379c0.081-0.162 0.136-0.341 0.164-0.539v-0.707c-0.016-0.154-0.048-0.297-0.098-0.43-0.047-0.133-0.111-0.249-0.191-0.348-0.081-0.102-0.181-0.18-0.3-0.234-0.117-0.057-0.257-0.086-0.418-0.086-0.172 0-0.318 0.037-0.438 0.109s-0.219 0.173-0.297 0.301c-0.075 0.128-0.132 0.276-0.168 0.445s-0.054 0.35-0.054 0.543z"></path>
</symbol>
<symbol id="button" viewBox="0 0 132 32">
<path fill="#4d5ae5" style="fill: var(--color1, #4d5ae5)" d="M3.2 0h125.6c1.767 0 3.2 1.433 3.2 3.2v25.6c0 1.767-1.433 3.2-3.2 3.2h-125.6c-1.767 0-3.2-1.433-3.2-3.2v-25.6c0-1.767 1.433-3.2 3.2-3.2z"></path>
<path fill="#fff" style="fill: var(--color2, #fff)" d="M25.064 17.656c0-0.188-0.029-0.354-0.088-0.5-0.054-0.146-0.152-0.279-0.294-0.4s-0.342-0.238-0.6-0.35c-0.254-0.117-0.579-0.235-0.975-0.356-0.433-0.133-0.833-0.281-1.2-0.444-0.362-0.167-0.679-0.358-0.95-0.575-0.271-0.221-0.481-0.473-0.631-0.756-0.15-0.288-0.225-0.619-0.225-0.994 0-0.371 0.077-0.708 0.231-1.013 0.158-0.304 0.381-0.567 0.669-0.787 0.292-0.225 0.635-0.398 1.031-0.519 0.396-0.125 0.833-0.187 1.312-0.187 0.675 0 1.256 0.125 1.744 0.375 0.492 0.25 0.869 0.585 1.131 1.006 0.267 0.421 0.4 0.885 0.4 1.394h-1.556c0-0.3-0.065-0.565-0.194-0.794-0.125-0.233-0.317-0.417-0.575-0.55-0.254-0.133-0.577-0.2-0.969-0.2-0.371 0-0.679 0.056-0.925 0.169s-0.429 0.265-0.55 0.456c-0.121 0.192-0.181 0.408-0.181 0.65 0 0.171 0.040 0.327 0.119 0.469 0.079 0.138 0.2 0.267 0.362 0.388 0.162 0.117 0.367 0.227 0.612 0.331s0.535 0.204 0.869 0.3c0.504 0.15 0.944 0.317 1.319 0.5 0.375 0.179 0.688 0.383 0.938 0.613s0.437 0.49 0.562 0.781c0.125 0.288 0.188 0.615 0.188 0.981 0 0.383-0.077 0.729-0.231 1.038-0.154 0.304-0.375 0.565-0.662 0.781-0.283 0.213-0.625 0.377-1.025 0.494-0.396 0.112-0.837 0.169-1.325 0.169-0.438 0-0.869-0.058-1.294-0.175-0.421-0.117-0.804-0.294-1.15-0.531-0.346-0.242-0.621-0.542-0.825-0.9-0.204-0.362-0.306-0.785-0.306-1.269h1.569c0 0.296 0.050 0.548 0.15 0.756 0.104 0.208 0.248 0.379 0.431 0.512 0.183 0.129 0.396 0.225 0.638 0.288 0.246 0.062 0.508 0.094 0.788 0.094 0.367 0 0.673-0.052 0.919-0.156 0.25-0.104 0.438-0.25 0.562-0.438s0.188-0.404 0.188-0.65zM32.458 18.406v-5.169h1.512v6.762h-1.425l-0.088-1.594zM32.67 17l0.506-0.012c0 0.454-0.050 0.873-0.15 1.256-0.1 0.379-0.254 0.71-0.462 0.994-0.208 0.279-0.475 0.498-0.8 0.656-0.325 0.154-0.715 0.231-1.169 0.231-0.329 0-0.631-0.048-0.906-0.144s-0.512-0.244-0.712-0.444c-0.196-0.2-0.348-0.46-0.456-0.781s-0.162-0.704-0.162-1.15v-4.369h1.506v4.381c0 0.246 0.029 0.452 0.088 0.619 0.058 0.162 0.137 0.294 0.237 0.394s0.217 0.171 0.35 0.212c0.133 0.042 0.275 0.062 0.425 0.062 0.429 0 0.767-0.083 1.012-0.25 0.25-0.171 0.427-0.4 0.531-0.688 0.108-0.287 0.162-0.61 0.162-0.969zM36.032 10.4h1.506v8.156l-0.144 1.444h-1.362v-9.6zM41.951 16.556v0.131c0 0.5-0.056 0.96-0.169 1.381-0.108 0.417-0.275 0.779-0.5 1.088-0.221 0.308-0.496 0.548-0.825 0.719-0.325 0.167-0.702 0.25-1.131 0.25-0.421 0-0.788-0.079-1.1-0.237s-0.575-0.383-0.788-0.675c-0.208-0.292-0.377-0.64-0.506-1.044s-0.221-0.85-0.275-1.337v-0.419c0.054-0.492 0.146-0.937 0.275-1.337 0.129-0.404 0.298-0.752 0.506-1.044 0.212-0.296 0.473-0.523 0.781-0.681 0.312-0.158 0.677-0.238 1.094-0.238 0.433 0 0.815 0.083 1.144 0.25 0.333 0.167 0.61 0.404 0.831 0.713 0.221 0.304 0.385 0.667 0.494 1.087 0.112 0.421 0.169 0.885 0.169 1.394zM40.445 16.688v-0.131c0-0.304-0.025-0.59-0.075-0.856-0.050-0.271-0.133-0.508-0.25-0.712-0.112-0.204-0.267-0.365-0.462-0.481-0.192-0.121-0.431-0.181-0.719-0.181-0.267 0-0.496 0.046-0.688 0.138s-0.352 0.217-0.481 0.375c-0.129 0.158-0.231 0.342-0.306 0.55-0.071 0.208-0.119 0.433-0.144 0.675v1.131c0.038 0.312 0.117 0.6 0.238 0.862 0.125 0.258 0.3 0.467 0.525 0.625 0.225 0.154 0.515 0.231 0.869 0.231 0.279 0 0.515-0.056 0.706-0.169s0.344-0.269 0.456-0.469c0.117-0.204 0.2-0.442 0.25-0.713 0.054-0.271 0.081-0.562 0.081-0.875zM47.532 18.169c0-0.15-0.038-0.285-0.112-0.406-0.075-0.125-0.219-0.238-0.431-0.338-0.208-0.1-0.517-0.192-0.925-0.275-0.358-0.079-0.687-0.173-0.987-0.281-0.296-0.112-0.55-0.248-0.763-0.406s-0.377-0.346-0.494-0.562c-0.117-0.217-0.175-0.467-0.175-0.75 0-0.275 0.060-0.535 0.181-0.781s0.294-0.462 0.519-0.65c0.225-0.187 0.498-0.335 0.819-0.444 0.325-0.108 0.688-0.163 1.088-0.163 0.567 0 1.052 0.096 1.456 0.288 0.408 0.188 0.721 0.444 0.938 0.769 0.217 0.321 0.325 0.683 0.325 1.088h-1.506c0-0.179-0.046-0.346-0.137-0.5-0.088-0.158-0.221-0.285-0.4-0.381-0.179-0.1-0.404-0.15-0.675-0.15-0.258 0-0.473 0.042-0.644 0.125-0.167 0.079-0.292 0.183-0.375 0.312-0.079 0.129-0.119 0.271-0.119 0.425 0 0.112 0.021 0.215 0.063 0.306 0.046 0.088 0.121 0.169 0.225 0.244 0.104 0.071 0.246 0.138 0.425 0.2 0.183 0.062 0.412 0.123 0.687 0.181 0.517 0.108 0.96 0.248 1.331 0.419 0.375 0.167 0.662 0.383 0.862 0.65 0.2 0.262 0.3 0.596 0.3 1 0 0.3-0.065 0.575-0.194 0.825-0.125 0.246-0.308 0.46-0.55 0.644-0.242 0.179-0.531 0.319-0.869 0.419-0.333 0.1-0.708 0.15-1.125 0.15-0.613 0-1.131-0.108-1.556-0.325-0.425-0.221-0.748-0.502-0.969-0.844-0.217-0.346-0.325-0.704-0.325-1.075h1.456c0.017 0.279 0.094 0.502 0.231 0.669 0.142 0.162 0.317 0.281 0.525 0.356 0.212 0.071 0.431 0.106 0.656 0.106 0.271 0 0.498-0.035 0.681-0.106 0.183-0.075 0.323-0.175 0.419-0.3 0.096-0.129 0.144-0.275 0.144-0.438zM53.6 18.925c0.246 0 0.467-0.048 0.662-0.144 0.2-0.1 0.36-0.238 0.481-0.413 0.125-0.175 0.194-0.377 0.206-0.606h1.419c-0.008 0.438-0.137 0.835-0.387 1.194s-0.581 0.644-0.994 0.856c-0.412 0.208-0.869 0.312-1.369 0.312-0.517 0-0.967-0.087-1.35-0.262-0.383-0.179-0.702-0.425-0.956-0.738s-0.446-0.673-0.575-1.081c-0.125-0.408-0.188-0.846-0.188-1.312v-0.219c0-0.467 0.062-0.904 0.188-1.312 0.129-0.412 0.321-0.775 0.575-1.088s0.573-0.556 0.956-0.731c0.383-0.179 0.831-0.269 1.344-0.269 0.542 0 1.017 0.108 1.425 0.325 0.408 0.212 0.729 0.51 0.962 0.894 0.238 0.379 0.36 0.821 0.369 1.325h-1.419c-0.012-0.25-0.075-0.475-0.188-0.675-0.108-0.204-0.262-0.367-0.462-0.488-0.196-0.121-0.431-0.181-0.706-0.181-0.304 0-0.556 0.063-0.756 0.188-0.2 0.121-0.356 0.288-0.469 0.5-0.112 0.208-0.194 0.444-0.244 0.706-0.046 0.258-0.069 0.527-0.069 0.806v0.219c0 0.279 0.023 0.55 0.069 0.812s0.125 0.498 0.238 0.706c0.117 0.204 0.275 0.369 0.475 0.494 0.2 0.121 0.454 0.181 0.762 0.181zM59.55 14.525v5.475h-1.506v-6.762h1.437l0.069 1.287zM61.618 13.194l-0.012 1.4c-0.092-0.017-0.192-0.029-0.3-0.038-0.104-0.008-0.208-0.012-0.312-0.012-0.258 0-0.485 0.038-0.681 0.112-0.196 0.071-0.36 0.175-0.494 0.312-0.129 0.133-0.229 0.296-0.3 0.488s-0.112 0.406-0.125 0.644l-0.344 0.025c0-0.425 0.042-0.819 0.125-1.181s0.208-0.681 0.375-0.956c0.171-0.275 0.383-0.49 0.637-0.644 0.258-0.154 0.556-0.231 0.894-0.231 0.092 0 0.19 0.008 0.294 0.025 0.108 0.017 0.19 0.035 0.244 0.056zM64.686 13.238v6.762h-1.512v-6.762h1.512zM63.074 11.462c0-0.229 0.075-0.419 0.225-0.569 0.154-0.154 0.367-0.231 0.638-0.231 0.267 0 0.477 0.077 0.631 0.231 0.154 0.15 0.231 0.34 0.231 0.569 0 0.225-0.077 0.413-0.231 0.562s-0.365 0.225-0.631 0.225c-0.271 0-0.483-0.075-0.638-0.225-0.15-0.15-0.225-0.337-0.225-0.562zM66.855 10.4h1.506v8.156l-0.144 1.444h-1.363v-9.6zM72.774 16.556v0.131c0 0.5-0.056 0.96-0.169 1.381-0.108 0.417-0.275 0.779-0.5 1.088-0.221 0.308-0.496 0.548-0.825 0.719-0.325 0.167-0.702 0.25-1.131 0.25-0.421 0-0.788-0.079-1.1-0.237s-0.575-0.383-0.788-0.675c-0.208-0.292-0.377-0.64-0.506-1.044s-0.221-0.85-0.275-1.337v-0.419c0.054-0.492 0.146-0.937 0.275-1.337 0.129-0.404 0.298-0.752 0.506-1.044 0.213-0.296 0.473-0.523 0.781-0.681 0.312-0.158 0.677-0.238 1.094-0.238 0.433 0 0.815 0.083 1.144 0.25 0.333 0.167 0.61 0.404 0.831 0.713 0.221 0.304 0.385 0.667 0.494 1.087 0.113 0.421 0.169 0.885 0.169 1.394zM71.267 16.688v-0.131c0-0.304-0.025-0.59-0.075-0.856-0.050-0.271-0.133-0.508-0.25-0.712-0.112-0.204-0.267-0.365-0.462-0.481-0.192-0.121-0.431-0.181-0.719-0.181-0.267 0-0.496 0.046-0.687 0.138s-0.352 0.217-0.481 0.375c-0.129 0.158-0.231 0.342-0.306 0.55-0.071 0.208-0.119 0.433-0.144 0.675v1.131c0.038 0.312 0.117 0.6 0.238 0.862 0.125 0.258 0.3 0.467 0.525 0.625 0.225 0.154 0.515 0.231 0.869 0.231 0.279 0 0.515-0.056 0.706-0.169s0.344-0.269 0.456-0.469c0.117-0.204 0.2-0.442 0.25-0.713 0.054-0.271 0.081-0.562 0.081-0.875zM77.542 20.125c-0.5 0-0.952-0.081-1.356-0.244-0.4-0.167-0.742-0.398-1.025-0.694-0.279-0.296-0.494-0.644-0.644-1.044s-0.225-0.831-0.225-1.294v-0.25c0-0.529 0.077-1.008 0.231-1.438s0.369-0.796 0.644-1.1c0.275-0.308 0.6-0.544 0.975-0.706s0.781-0.244 1.219-0.244c0.483 0 0.906 0.081 1.269 0.244s0.662 0.392 0.9 0.688c0.242 0.292 0.421 0.64 0.537 1.044 0.121 0.404 0.182 0.85 0.182 1.337v0.644h-5.225v-1.081h3.738v-0.119c-0.008-0.271-0.062-0.525-0.162-0.762-0.096-0.238-0.244-0.429-0.444-0.575s-0.467-0.219-0.8-0.219c-0.25 0-0.473 0.054-0.669 0.163-0.192 0.104-0.352 0.256-0.481 0.456s-0.229 0.442-0.3 0.725c-0.067 0.279-0.1 0.594-0.1 0.944v0.25c0 0.296 0.040 0.571 0.119 0.825 0.083 0.25 0.204 0.469 0.363 0.656s0.35 0.335 0.575 0.444c0.225 0.104 0.481 0.156 0.769 0.156 0.362 0 0.685-0.073 0.969-0.219s0.529-0.352 0.738-0.619l0.794 0.769c-0.146 0.213-0.336 0.417-0.569 0.613-0.233 0.192-0.519 0.348-0.856 0.469-0.333 0.121-0.721 0.181-1.162 0.181z"></path>
<path fill="#fff" style="fill: var(--color2, #fff)" d="M112.8 8l-19.2 9 6.136 1.894 9.464-7.394-7.198 8.093 0.006 0.002-0.007-0.002v4.407l3.441-3.345 4.359 1.345 3-14z"></path>
</symbol>
<symbol id="close-black" viewBox="0 0 32 32">
<path d="M32 3.223l-3.223-3.223-12.777 12.777-12.777-12.777-3.223 3.223 12.777 12.777-12.777 12.777 3.223 3.223 12.777-12.777 12.777 12.777 3.223-3.223-12.777-12.777 12.777-12.777z"></path>
</symbol>
<symbol id="click" viewBox="0 0 32 32">
<path fill="#404bbf" style="fill: var(--color3, #404bbf)" d="M4 1h24c1.657 0 3 1.343 3 3v24c0 1.657-1.343 3-3 3h-24c-1.657 0-3-1.343-3-3v-24c0-1.657 1.343-3 3-3z"></path>
<path fill="none" stroke="#404bbf" style="stroke: var(--color3, #404bbf)" stroke-linejoin="miter" stroke-linecap="butt" stroke-miterlimit="4" stroke-width="2" d="M4 1h24c1.657 0 3 1.343 3 3v24c0 1.657-1.343 3-3 3h-24c-1.657 0-3-1.343-3-3v-24c0-1.657 1.343-3 3-3z"></path>
<path fill="#f4f4fd" style="fill: var(--color4, #f4f4fd)" d="M22.891 8.51c0.346-0.331 0.805-0.514 1.283-0.51s0.934 0.193 1.275 0.53c0.341 0.336 0.538 0.792 0.551 1.272s-0.161 0.945-0.483 1.299l-9.789 12.309c-0.168 0.182-0.371 0.328-0.597 0.43s-0.47 0.156-0.717 0.161c-0.247 0.005-0.493-0.041-0.723-0.134s-0.438-0.232-0.613-0.408l-6.492-6.527c-0.181-0.169-0.326-0.374-0.426-0.601s-0.155-0.472-0.159-0.72c-0.004-0.248 0.041-0.495 0.134-0.725s0.23-0.44 0.405-0.615c0.175-0.176 0.383-0.314 0.612-0.407s0.475-0.139 0.722-0.134c0.247 0.004 0.491 0.059 0.716 0.16s0.429 0.247 0.597 0.429l5.137 5.163 8.521-10.915c0.015-0.019 0.032-0.037 0.049-0.054h-0.002z"></path>
</symbol>
<symbol id="vector-2" viewBox="0 0 32 32">
<path fill="#4d5ae5" style="fill: var(--color1, #4d5ae5)" d="M16 16c4.42 0 8-3.58 8-8s-3.58-8-8-8c-4.42 0-8 3.58-8 8s3.58 8 8 8zM16 20c-5.34 0-16 2.68-16 8v2c0 1.1 0.9 2 2 2h28c1.1 0 2-0.9 2-2v-2c0-5.32-10.66-8-16-8z"></path>
</symbol>
<symbol id="vector-3" viewBox="0 0 32 32">
<path d="M28.865 21.822l-4.525-0.517c-1.087-0.125-2.155 0.249-2.921 1.015l-3.278 3.278c-5.041-2.565-9.174-6.68-11.739-11.739l3.296-3.296c0.766-0.766 1.14-1.835 1.015-2.921l-0.517-4.489c-0.214-1.799-1.728-3.153-3.545-3.153h-3.082c-2.013 0-3.687 1.675-3.563 3.687 0.944 15.213 13.111 27.362 28.306 28.306 2.013 0.125 3.687-1.55 3.687-3.563v-3.082c0.018-1.799-1.336-3.313-3.135-3.527z"></path>
</symbol>
<symbol id="vector-4" viewBox="0 0 43 32">
<path d="M37.333 0h-32c-2.2 0-3.98 1.8-3.98 4l-0.020 24c0 2.2 1.8 4 4 4h32c2.2 0 4-1.8 4-4v-24c0-2.2-1.8-4-4-4zM36.533 8.5l-14.14 8.84c-0.64 0.4-1.48 0.4-2.12 0l-14.14-8.84c-0.5-0.32-0.8-0.86-0.8-1.44 0-1.34 1.46-2.14 2.6-1.44l13.4 8.38 13.4-8.38c1.14-0.7 2.6 0.1 2.6 1.44 0 0.58-0.3 1.12-0.8 1.44z"></path>
</symbol>
<symbol id="instagram" viewBox="0 0 32 32">
<path fill="#f4f4fd" style="fill: var(--color4, #f4f4fd)" d="M31.969 9.408c-0.075-1.7-0.35-2.869-0.744-3.882-0.406-1.075-1.031-2.038-1.85-2.838-0.8-0.813-1.769-1.444-2.832-1.844-1.019-0.394-2.182-0.669-3.882-0.744-1.713-0.081-2.257-0.1-6.601-0.1s-4.888 0.019-6.595 0.094c-1.7 0.075-2.869 0.35-3.882 0.744-1.075 0.406-2.038 1.031-2.838 1.85-0.813 0.8-1.444 1.769-1.844 2.832-0.394 1.019-0.669 2.182-0.744 3.882-0.081 1.713-0.1 2.257-0.1 6.601s0.019 4.888 0.094 6.595c0.075 1.7 0.35 2.869 0.744 3.882 0.406 1.075 1.038 2.038 1.85 2.838 0.8 0.813 1.769 1.444 2.832 1.844 1.019 0.394 2.182 0.669 3.882 0.744 1.706 0.075 2.25 0.094 6.595 0.094s4.888-0.019 6.595-0.094c1.7-0.075 2.869-0.35 3.882-0.744 2.151-0.831 3.851-2.532 4.682-4.682 0.394-1.019 0.669-2.182 0.744-3.882 0.075-1.707 0.094-2.25 0.094-6.595s-0.006-4.888-0.081-6.595zM29.087 22.473c-0.069 1.563-0.331 2.407-0.55 2.969-0.538 1.394-1.644 2.5-3.038 3.038-0.563 0.219-1.413 0.481-2.969 0.55-1.688 0.075-2.194 0.094-6.464 0.094s-4.782-0.019-6.464-0.094c-1.563-0.069-2.407-0.331-2.969-0.55-0.694-0.256-1.325-0.663-1.838-1.194-0.531-0.519-0.938-1.144-1.194-1.838-0.219-0.563-0.481-1.413-0.55-2.969-0.075-1.688-0.094-2.194-0.094-6.464s0.019-4.782 0.094-6.464c0.069-1.563 0.331-2.407 0.55-2.969 0.256-0.694 0.663-1.325 1.2-1.838 0.519-0.531 1.144-0.938 1.838-1.194 0.563-0.219 1.413-0.481 2.969-0.55 1.688-0.075 2.194-0.094 6.464-0.094 4.276 0 4.782 0.019 6.464 0.094 1.563 0.069 2.407 0.331 2.969 0.55 0.694 0.256 1.325 0.662 1.838 1.194 0.531 0.519 0.938 1.144 1.194 1.838 0.219 0.563 0.481 1.413 0.55 2.969 0.075 1.688 0.094 2.194 0.094 6.464s-0.019 4.77-0.094 6.458z"></path>
<path fill="#f4f4fd" style="fill: var(--color4, #f4f4fd)" d="M16.059 7.783c-4.538 0-8.22 3.682-8.22 8.22s3.682 8.22 8.22 8.22c4.538 0 8.22-3.682 8.22-8.22s-3.682-8.22-8.22-8.22zM16.059 21.335c-2.944 0-5.332-2.388-5.332-5.332s2.388-5.332 5.332-5.332c2.944 0 5.332 2.388 5.332 5.332s-2.388 5.332-5.332 5.332z"></path>
<path fill="#f4f4fd" style="fill: var(--color4, #f4f4fd)" d="M26.524 7.458c0 1.060-0.859 1.919-1.919 1.919s-1.919-0.859-1.919-1.919c0-1.060 0.859-1.919 1.919-1.919s1.919 0.859 1.919 1.919z"></path>
</symbol>
<symbol id="twitter" viewBox="0 0 32 32">
<path fill="#f4f4fd" style="fill: var(--color4, #f4f4fd)" d="M32 6.078c-1.19 0.522-2.458 0.868-3.78 1.036 1.36-0.812 2.398-2.088 2.886-3.626-1.268 0.756-2.668 1.29-4.16 1.588-1.204-1.282-2.92-2.076-4.792-2.076-3.632 0-6.556 2.948-6.556 6.562 0 0.52 0.044 1.020 0.152 1.496-5.454-0.266-10.28-2.88-13.522-6.862-0.566 0.982-0.898 2.106-0.898 3.316 0 2.272 1.17 4.286 2.914 5.452-1.054-0.020-2.088-0.326-2.964-0.808 0 0.020 0 0.046 0 0.072 0 3.188 2.274 5.836 5.256 6.446-0.534 0.146-1.116 0.216-1.72 0.216-0.42 0-0.844-0.024-1.242-0.112 0.85 2.598 3.262 4.508 6.13 4.57-2.232 1.746-5.066 2.798-8.134 2.798-0.538 0-1.054-0.024-1.57-0.090 2.906 1.874 6.35 2.944 10.064 2.944 12.072 0 18.672-10 18.672-18.668 0-0.29-0.010-0.57-0.024-0.848 1.302-0.924 2.396-2.078 3.288-3.406z"></path>
</symbol>
<symbol id="facebook" viewBox="0 0 32 32">
<path fill="#f4f4fd" style="fill: var(--color4, #f4f4fd)" d="M21.329 5.313h2.921v-5.088c-0.504-0.069-2.237-0.225-4.256-0.225-4.212 0-7.097 2.649-7.097 7.519v4.481h-4.648v5.688h4.648v14.312h5.699v-14.311h4.46l0.708-5.688h-5.169v-3.919c0.001-1.644 0.444-2.769 2.735-2.769z"></path>
</symbol>
<symbol id="linkedin" viewBox="0 0 32 32">
<path fill="#f4f4fd" style="fill: var(--color4, #f4f4fd)" d="M31.992 32v-0.001h0.008v-11.736c0-5.741-1.236-10.164-7.948-10.164-3.227 0-5.392 1.771-6.276 3.449h-0.093v-2.913h-6.364v21.364h6.627v-10.579c0-2.785 0.528-5.479 3.977-5.479 3.399 0 3.449 3.179 3.449 5.657v10.401h6.62z"></path>
<path fill="#f4f4fd" style="fill: var(--color4, #f4f4fd)" d="M0.528 10.636h6.635v21.364h-6.635v-21.364z"></path>
<path fill="#f4f4fd" style="fill: var(--color4, #f4f4fd)" d="M3.843-0c-2.121 0-3.843 1.721-3.843 3.843s1.721 3.879 3.843 3.879c2.121 0 3.843-1.757 3.843-3.879-0.001-2.121-1.723-3.843-3.843-3.843v0z"></path>
</symbol>
</defs>
</svg>
