<svg aria-hidden="true" style="position:absolute;width:0;height:0;overflow:hidden" xmlns="http://www.w3.org/2000/svg">
  <defs>
    <symbol id="send" viewBox="0 0 38 32">
      <path fill="#fff" style="fill:var(--color1, #fff)" d="M38.4 0 0 18l12.272 3.788L31.2 7 16.803 23.186l.012.004-.014-.004V32l6.882-6.691L32.401 28l6-28z"/>
    </symbol>
     <symbol id="button" viewBox="0 0 132 32">
      <path fill="#4d5ae5" style="fill:var(--color1, #4d5ae5)" d="M3.2 0h125.6a3.2 3.2 0 0 1 3.2 3.2v25.6a3.2 3.2 0 0 1-3.2 3.2H3.2A3.2 3.2 0 0 1 0 28.8V3.2A3.2 3.2 0 0 1 3.2 0z"/>
      <path fill="#fff" style="fill:var(--color2, #fff)" d="M25.064 17.656c0-.188-.029-.354-.088-.5-.054-.146-.152-.279-.294-.4s-.342-.238-.6-.35a7.923 7.923 0 0 0-.975-.356 10.692 10.692 0 0 1-1.2-.444 4.584 4.584 0 0 1-.95-.575 2.46 2.46 0 0 1-.631-.756 2.12 2.12 0 0 1-.225-.994c0-.371.077-.708.231-1.013.158-.304.381-.567.669-.787a3.203 3.203 0 0 1 1.031-.519 4.342 4.342 0 0 1 1.312-.187c.675 0 1.256.125 1.744.375.492.25.869.585 1.131 1.006.267.421.4.885.4 1.394h-1.556c0-.3-.065-.565-.194-.794a1.315 1.315 0 0 0-.575-.55c-.254-.133-.577-.2-.969-.2-.371 0-.679.056-.925.169s-.429.265-.55.456a1.192 1.192 0 0 0-.181.65c0 .171.04.327.119.469.079.138.2.267.362.388.162.117.367.227.612.331s.535.204.869.3c.504.15.944.317 1.319.5.375.179.688.383.938.613s.437.49.562.781c.125.288.188.615.188.981 0 .383-.077.729-.231 1.038a2.236 2.236 0 0 1-.662.781 3.164 3.164 0 0 1-1.025.494 4.86 4.86 0 0 1-1.325.169c-.438 0-.869-.058-1.294-.175a3.836 3.836 0 0 1-1.15-.531 2.748 2.748 0 0 1-.825-.9c-.204-.362-.306-.785-.306-1.269h1.569c0 .296.05.548.15.756.104.208.248.379.431.512.183.129.396.225.638.288.246.062.508.094.788.094.367 0 .673-.052.919-.156.25-.104.438-.25.562-.438s.188-.404.188-.65zm7.394.75v-5.169h1.512v6.762h-1.425l-.088-1.594zM32.67 17l.506-.012c0 .454-.05.873-.15 1.256-.1.379-.254.71-.462.994a2.158 2.158 0 0 1-.8.656c-.325.154-.715.231-1.169.231-.329 0-.631-.048-.906-.144s-.512-.244-.712-.444c-.196-.2-.348-.46-.456-.781s-.162-.704-.162-1.15v-4.369h1.506v4.381c0 .246.029.452.088.619.058.162.137.294.237.394s.217.171.35.212c.133.042.275.062.425.062.429 0 .767-.083 1.012-.25.25-.171.427-.4.531-.688.108-.287.162-.61.162-.969zm3.362-6.6h1.506v8.156L37.394 20h-1.362v-9.6zm5.919 6.156v.131c0 .5-.056.96-.169 1.381a3.182 3.182 0 0 1-.5 1.088 2.324 2.324 0 0 1-.825.719c-.325.167-.702.25-1.131.25-.421 0-.788-.079-1.1-.237s-.575-.383-.788-.675c-.208-.292-.377-.64-.506-1.044s-.221-.85-.275-1.337v-.419c.054-.492.146-.937.275-1.337.129-.404.298-.752.506-1.044.212-.296.473-.523.781-.681a2.393 2.393 0 0 1 1.094-.238c.433 0 .815.083 1.144.25.333.167.61.404.831.713.221.304.385.667.494 1.087.112.421.169.885.169 1.394zm-1.506.132v-.131c0-.304-.025-.59-.075-.856a2.235 2.235 0 0 0-.25-.712 1.25 1.25 0 0 0-.462-.481c-.192-.121-.431-.181-.719-.181-.267 0-.496.046-.688.138s-.352.217-.481.375a1.86 1.86 0 0 0-.306.55 3.057 3.057 0 0 0-.144.675v1.131c.038.312.117.6.238.862.125.258.3.467.525.625.225.154.515.231.869.231.279 0 .515-.056.706-.169s.344-.269.456-.469c.117-.204.2-.442.25-.713.054-.271.081-.562.081-.875zm7.087 1.481a.763.763 0 0 0-.112-.406c-.075-.125-.219-.238-.431-.338-.208-.1-.517-.192-.925-.275a8.018 8.018 0 0 1-.987-.281c-.296-.112-.55-.248-.763-.406s-.377-.346-.494-.562a1.556 1.556 0 0 1-.175-.75c0-.275.06-.535.181-.781s.294-.462.519-.65c.225-.187.498-.335.819-.444a3.438 3.438 0 0 1 1.088-.163c.567 0 1.052.096 1.456.288.408.188.721.444.938.769.217.321.325.683.325 1.088h-1.506a.967.967 0 0 0-.137-.5.964.964 0 0 0-.4-.381c-.179-.1-.404-.15-.675-.15-.258 0-.473.042-.644.125a.876.876 0 0 0-.375.312.8.8 0 0 0-.056.731.72.72 0 0 0 .225.244c.104.071.246.138.425.2.183.062.412.123.687.181.517.108.96.248 1.331.419.375.167.662.383.862.65.2.262.3.596.3 1 0 .3-.065.575-.194.825-.125.246-.308.46-.55.644a2.766 2.766 0 0 1-.869.419c-.333.1-.708.15-1.125.15-.613 0-1.131-.108-1.556-.325-.425-.221-.748-.502-.969-.844a1.995 1.995 0 0 1-.325-1.075h1.456c.017.279.094.502.231.669.142.162.317.281.525.356.212.071.431.106.656.106.271 0 .498-.035.681-.106a.983.983 0 0 0 .419-.3.715.715 0 0 0 .144-.438zm6.068.756c.246 0 .467-.048.662-.144.2-.1.36-.238.481-.413.125-.175.194-.377.206-.606h1.419c-.008.438-.137.835-.387 1.194s-.581.644-.994.856a2.996 2.996 0 0 1-1.369.312c-.517 0-.967-.087-1.35-.262-.383-.179-.702-.425-.956-.738s-.446-.673-.575-1.081a4.46 4.46 0 0 1-.188-1.312v-.219c0-.467.062-.904.188-1.312.129-.412.321-.775.575-1.088s.573-.556.956-.731c.383-.179.831-.269 1.344-.269.542 0 1.017.108 1.425.325.408.212.729.51.962.894.238.379.36.821.369 1.325h-1.419a1.498 1.498 0 0 0-.188-.675 1.238 1.238 0 0 0-.462-.488 1.317 1.317 0 0 0-.706-.181c-.304 0-.556.063-.756.188a1.27 1.27 0 0 0-.469.5 2.452 2.452 0 0 0-.244.706 4.588 4.588 0 0 0-.069.806v.219c0 .279.023.55.069.812s.125.498.238.706c.117.204.275.369.475.494.2.121.454.181.762.181zm5.95-4.4V20h-1.506v-6.762h1.437l.069 1.287zm2.068-1.331-.012 1.4a3.062 3.062 0 0 0-.3-.038 4.067 4.067 0 0 0-.312-.012c-.258 0-.485.038-.681.112-.196.071-.36.175-.494.312-.129.133-.229.296-.3.488s-.112.406-.125.644l-.344.025c0-.425.042-.819.125-1.181s.208-.681.375-.956c.171-.275.383-.49.637-.644a1.71 1.71 0 0 1 .894-.231c.092 0 .19.008.294.025.108.017.19.035.244.056zm3.068.044V20h-1.512v-6.762h1.512zm-1.612-1.776c0-.229.075-.419.225-.569.154-.154.367-.231.638-.231.267 0 .477.077.631.231.154.15.231.34.231.569 0 .225-.077.413-.231.562s-.365.225-.631.225c-.271 0-.483-.075-.638-.225a.762.762 0 0 1-.225-.562zm3.781-1.062h1.506v8.156L68.217 20h-1.363v-9.6zm5.919 6.156v.131c0 .5-.056.96-.169 1.381a3.182 3.182 0 0 1-.5 1.088 2.324 2.324 0 0 1-.825.719c-.325.167-.702.25-1.131.25-.421 0-.788-.079-1.1-.237s-.575-.383-.788-.675c-.208-.292-.377-.64-.506-1.044s-.221-.85-.275-1.337v-.419c.054-.492.146-.937.275-1.337.129-.404.298-.752.506-1.044.213-.296.473-.523.781-.681a2.393 2.393 0 0 1 1.094-.238c.433 0 .815.083 1.144.25.333.167.61.404.831.713.221.304.385.667.494 1.087.113.421.169.885.169 1.394zm-1.507.132v-.131c0-.304-.025-.59-.075-.856a2.235 2.235 0 0 0-.25-.712 1.25 1.25 0 0 0-.462-.481c-.192-.121-.431-.181-.719-.181-.267 0-.496.046-.687.138s-.352.217-.481.375a1.86 1.86 0 0 0-.306.55 3.057 3.057 0 0 0-.144.675v1.131c.038.312.117.6.238.862.125.258.3.467.525.625.225.154.515.231.869.231.279 0 .515-.056.706-.169s.344-.269.456-.469c.117-.204.2-.442.25-.713.054-.271.081-.562.081-.875zm6.275 3.437c-.5 0-.952-.081-1.356-.244a2.994 2.994 0 0 1-1.025-.694c-.279-.296-.494-.644-.644-1.044s-.225-.831-.225-1.294v-.25c0-.529.077-1.008.231-1.438s.369-.796.644-1.1c.275-.308.6-.544.975-.706s.781-.244 1.219-.244c.483 0 .906.081 1.269.244s.662.392.9.688c.242.292.421.64.537 1.044.121.404.182.85.182 1.337v.644h-5.225v-1.081h3.738v-.119a2.102 2.102 0 0 0-.162-.762c-.096-.238-.244-.429-.444-.575s-.467-.219-.8-.219a1.316 1.316 0 0 0-1.15.619c-.129.2-.229.442-.3.725-.067.279-.1.594-.1.944v.25c0 .296.04.571.119.825.083.25.204.469.363.656s.35.335.575.444c.225.104.481.156.769.156.362 0 .685-.073.969-.219s.529-.352.738-.619l.794.769a3.104 3.104 0 0 1-.569.613 2.845 2.845 0 0 1-.856.469 3.4 3.4 0 0 1-1.162.181zM112.8 8l-19.2 9 6.136 1.894L109.2 11.5l-7.198 8.093.006.002-.007-.002V24l3.441-3.345L109.801 22l3-14z"/>
    </symbol>
    <symbol id="close-black" viewBox="0 0 32 32">
      <path d="M32 3.223 28.777 0 16 12.777 3.223 0 0 3.223 12.777 16 0 28.777 3.223 32 16 19.223 28.777 32 32 28.777 19.223 16 32 3.223z"/>
    </symbol>
    <symbol id="click" viewBox="0 0 32 32">
      <path fill="#404bbf" style="fill:var(--color3, #404bbf)" d="M4 1h24a3 3 0 0 1 3 3v24a3 3 0 0 1-3 3H4a3 3 0 0 1-3-3V4a3 3 0 0 1 3-3z"/>
      <path fill="none" stroke="#404bbf" style="stroke:var(--color3, #404bbf)" stroke-width="2" d="M4 1h24a3 3 0 0 1 3 3v24a3 3 0 0 1-3 3H4a3 3 0 0 1-3-3V4a3 3 0 0 1 3-3z"/>
      <path fill="#f4f4fd" style="fill:var(--color4, #f4f4fd)" d="M22.891 8.51a1.832 1.832 0 0 1 2.558.02 1.855 1.855 0 0 1 .068 2.571L15.728 23.41a1.845 1.845 0 0 1-1.314.591 1.83 1.83 0 0 1-1.336-.542l-6.492-6.527a1.863 1.863 0 0 1-.451-2.046 1.85 1.85 0 0 1 1.017-1.022 1.823 1.823 0 0 1 1.438.026c.225.101.429.247.597.429l5.137 5.163 8.521-10.915a.628.628 0 0 1 .049-.054h-.002z"/>
    </symbol>
    <symbol id="vector-2" viewBox="0 0 32 32">
      <path fill="#4d5ae5" style="fill:var(--color1, #4d5ae5)" d="M16 16c4.42 0 8-3.58 8-8s-3.58-8-8-8-8 3.58-8 8 3.58 8 8 8zm0 4c-5.34 0-16 2.68-16 8v2c0 1.1.9 2 2 2h28c1.1 0 2-.9 2-2v-2c0-5.32-10.66-8-16-8z"/>
    </symbol>
    <symbol id="vector-3" viewBox="0 0 32 32">
      <path d="m28.865 21.822-4.525-.517a3.543 3.543 0 0 0-2.921 1.015l-3.278 3.278A26.8 26.8 0 0 1 6.402 13.859l3.296-3.296a3.545 3.545 0 0 0 1.015-2.921l-.517-4.489A3.566 3.566 0 0 0 6.651 0H3.569C1.556 0-.118 1.675.006 3.687.95 18.9 13.117 31.049 28.312 31.993c2.013.125 3.687-1.55 3.687-3.563v-3.082c.018-1.799-1.336-3.313-3.135-3.527z"/>
    </symbol>
    <symbol id="vector-4" viewBox="0 0 43 32">
      <path d="M37.333 0h-32c-2.2 0-3.98 1.8-3.98 4l-.02 24c0 2.2 1.8 4 4 4h32c2.2 0 4-1.8 4-4V4c0-2.2-1.8-4-4-4zm-.8 8.5-14.14 8.84c-.64.4-1.48.4-2.12 0L6.133 8.5c-.5-.32-.8-.86-.8-1.44 0-1.34 1.46-2.14 2.6-1.44l13.4 8.38 13.4-8.38c1.14-.7 2.6.1 2.6 1.44 0 .58-.3 1.12-.8 1.44z"/>
    </symbol>
    <svg aria-hidden="true" style="position:absolute;width:0;height:0;overflow:hidden" xmlns="http://www.w3.org/2000/svg">
  </defs>
</svg>

